<?xml version="1.0" encoding="UTF-8" standalone="no"?>
<svg width="816px" height="225px" viewBox="0 0 816 225" version="1.1" xmlns="http://www.w3.org/2000/svg" xmlns:xlink="http://www.w3.org/1999/xlink" xmlns:sketch="http://www.bohemiancoding.com/sketch/ns">
    <!-- Generator: Sketch 3.4 (15575) - http://www.bohemiancoding.com/sketch -->
    <title>logo</title>
    <desc>Created with Sketch.</desc>
    <defs></defs>
    <g id="Page-1" stroke="none" stroke-width="1" fill="none" fill-rule="evenodd" sketch:type="MSPage">
        <g id="The-Cover-of-+-from-a-photo-taken-b" sketch:type="MSLayerGroup" transform="translate(4.000000, 9.000000)" fill="#FFFFFF">
            <path d="M19.746,59.082 C18.927,62.176 18.199,63.905 13.831,63.905 L9.008,63.905 L7.916,68 L39.129,68 L40.221,63.905 L35.125,63.905 C32.577,63.905 29.665,63.905 29.665,60.993 C29.665,59.264 30.302,57.262 30.666,55.806 L42.86,10.943 C43.588,7.667 44.043,6.393 47.683,6.393 C57.511,6.393 59.968,11.671 59.968,20.68 C59.968,22.773 59.877,24.866 59.695,26.777 L63.335,27.323 L66.975,2.298 L12.648,2.298 L4.64,25.776 L8.28,26.322 C15.378,12.672 19.382,6.393 30.302,6.393 C32.304,6.393 33.578,6.848 33.578,8.304 C33.578,9.396 33.123,10.67 32.486,12.854 L19.746,59.082 Z M71.343,5.483 L75.438,5.483 C77.44,5.483 79.442,5.483 79.442,7.485 C79.442,9.942 78.714,11.58 77.895,14.401 L62.334,68 L70.706,68 C72.89,59.537 74.801,50.892 78.896,43.066 C81.444,38.243 87.905,30.144 93.82,30.144 C96.095,30.144 97.642,31.782 97.642,34.057 C97.642,38.971 89.543,57.717 89.543,62.176 C89.543,66.362 91.818,69.365 96.186,69.365 C103.102,69.365 108.926,61.357 112.202,56.079 L109.654,54.441 C105.377,60.993 101.464,64.815 99.098,64.815 C98.006,64.815 96.823,64.724 96.823,62.904 C96.823,60.174 104.922,40.245 104.922,34.33 C104.922,29.962 102.647,25.594 97.005,25.594 C88.815,25.594 83.81,31.964 79.26,37.515 L79.078,37.515 L89.634,0.933 L72.162,2.298 L71.343,5.483 Z M147.601,57.626 C144.234,61.357 139.138,65.27 133.86,65.27 C126.944,65.27 124.487,61.175 124.487,54.805 C124.487,54.077 124.578,53.258 124.669,52.439 C133.587,50.528 151.969,46.524 151.969,34.694 C151.969,28.142 146.509,25.594 140.958,25.594 C128.491,25.594 116.115,38.243 116.115,54.077 C116.115,63.723 122.758,69.365 132.131,69.365 C139.775,69.365 144.962,65.634 149.694,59.992 L147.601,57.626 Z M125.124,49.254 C126.125,41.701 130.402,28.779 139.684,28.779 C142.869,28.779 144.689,30.872 144.689,34.148 C144.689,41.61 137.318,46.888 125.124,49.254 L125.124,49.254 Z M238.601,8.668 C235.143,3.481 228.955,0.933 222.767,0.933 C201.928,0.933 186.003,22.773 186.003,43.066 C186.003,58.627 195.74,69.365 212.029,69.365 C226.862,69.365 234.324,63.086 239.875,49.709 L236.326,48.071 C232.231,57.717 225.679,65.27 214.486,65.27 C202.656,65.27 197.287,56.898 197.287,45.887 C197.287,32.146 205.386,5.028 223.222,5.028 C236.417,5.028 238.328,18.405 238.601,28.597 L242.241,28.597 L247.155,3.117 L243.97,3.117 L238.601,8.668 Z M289.015,43.066 C289.015,33.147 282.372,25.594 272.18,25.594 C258.803,25.594 248.247,39.426 248.247,52.075 C248.247,62.995 254.162,69.365 264.9,69.365 C278.459,69.365 289.015,55.806 289.015,43.066 L289.015,43.066 Z M265.355,66.18 C258.712,66.18 256.619,61.994 256.619,55.988 C256.619,47.98 261.442,28.779 271.998,28.779 C278.55,28.779 280.643,33.784 280.643,39.608 C280.643,47.707 275.82,66.18 265.355,66.18 L265.355,66.18 Z M313.585,25.594 L297.205,26.959 L296.386,30.144 L299.935,30.144 C301.937,30.144 303.393,30.144 303.393,32.146 C303.393,32.783 303.211,34.057 302.938,35.24 L300.39,43.976 C299.389,47.161 297.842,52.985 297.842,56.261 C297.842,64.087 301.573,69.365 309.854,69.365 C324.505,69.365 334.242,46.16 334.242,33.602 C334.242,28.233 332.24,25.594 328.782,25.594 C326.052,25.594 324.414,27.141 324.414,29.507 C324.414,33.602 329.237,33.238 329.237,39.244 C329.237,47.525 321.411,64.815 311.765,64.815 C307.488,64.815 305.122,61.812 305.122,57.717 C305.122,52.257 307.124,46.433 308.58,41.792 L313.585,25.594 Z M371.734,57.626 C368.367,61.357 363.271,65.27 357.993,65.27 C351.077,65.27 348.62,61.175 348.62,54.805 C348.62,54.077 348.711,53.258 348.802,52.439 C357.72,50.528 376.102,46.524 376.102,34.694 C376.102,28.142 370.642,25.594 365.091,25.594 C352.624,25.594 340.248,38.243 340.248,54.077 C340.248,63.723 346.891,69.365 356.264,69.365 C363.908,69.365 369.095,65.634 373.827,59.992 L371.734,57.626 Z M349.257,49.254 C350.258,41.701 354.535,28.779 363.817,28.779 C367.002,28.779 368.822,30.872 368.822,34.148 C368.822,41.61 361.451,46.888 349.257,49.254 L349.257,49.254 Z M384.656,30.144 L388.478,30.144 C392.118,30.144 392.573,31.691 392.573,32.692 C392.573,33.875 391.845,37.333 390.48,41.519 L382.108,68 L390.48,68 C396.031,43.43 405.495,30.599 409.408,30.599 C411.137,30.599 411.41,31.691 411.41,33.056 C411.41,36.696 412.502,37.697 416.051,37.697 C418.872,37.697 420.692,35.331 420.692,32.419 C420.692,28.324 417.78,25.594 413.685,25.594 C406.587,25.594 402.401,32.328 399.034,37.515 L398.852,37.515 L401.491,25.594 L385.657,26.959 L384.656,30.144 Z M487.85,43.066 C487.85,33.147 481.207,25.594 471.015,25.594 C457.638,25.594 447.082,39.426 447.082,52.075 C447.082,62.995 452.997,69.365 463.735,69.365 C477.294,69.365 487.85,55.806 487.85,43.066 L487.85,43.066 Z M464.19,66.18 C457.547,66.18 455.454,61.994 455.454,55.988 C455.454,47.98 460.277,28.779 470.833,28.779 C477.385,28.779 479.478,33.784 479.478,39.608 C479.478,47.707 474.655,66.18 464.19,66.18 L464.19,66.18 Z M496.131,85.017 C498.861,76.463 501.682,68 503.866,59.264 L510.873,31.054 L522.612,31.054 L523.613,26.959 L511.965,26.959 L513.967,19.224 C515.605,13.855 518.153,4.118 525.433,4.118 C526.616,4.118 527.344,4.573 527.344,5.483 C527.344,7.121 525.888,7.121 525.888,9.942 C525.888,12.217 527.89,13.855 530.165,13.855 C533.441,13.855 535.17,11.853 535.17,8.577 C535.17,3.481 529.801,0.933 525.342,0.933 C512.238,0.933 507.779,16.494 504.685,26.959 L496.04,26.959 L495.039,31.054 L503.593,31.054 C498.679,49.436 494.766,68.819 486.212,86.655 L496.131,85.017 Z M19.746,168.282037 C18.927,171.376037 18.199,173.105037 13.831,173.105037 L9.008,173.105037 L7.916,177.200037 L39.129,177.200037 L40.221,173.105037 L35.125,173.105037 C32.577,173.105037 29.665,173.105037 29.665,170.193037 C29.665,168.464037 30.302,166.462037 30.666,165.006037 L42.86,120.143037 C43.588,116.867037 44.043,115.593037 47.683,115.593037 C57.511,115.593037 59.968,120.871037 59.968,129.880037 C59.968,131.973037 59.877,134.066037 59.695,135.977037 L63.335,136.523037 L66.975,111.498037 L12.648,111.498037 L4.64,134.976037 L8.28,135.522037 C15.378,121.872037 19.382,115.593037 30.302,115.593037 C32.304,115.593037 33.578,116.048037 33.578,117.504037 C33.578,118.596037 33.123,119.870037 32.486,122.054037 L19.746,168.282037 Z M71.343,114.683037 L75.438,114.683037 C77.44,114.683037 79.442,114.683037 79.442,116.685037 C79.442,119.142037 78.714,120.780037 77.895,123.601037 L62.334,177.200037 L70.706,177.200037 C72.89,168.737037 74.801,160.092037 78.896,152.266037 C81.444,147.443037 87.905,139.344037 93.82,139.344037 C96.095,139.344037 97.642,140.982037 97.642,143.257037 C97.642,148.171037 89.543,166.917037 89.543,171.376037 C89.543,175.562037 91.818,178.565037 96.186,178.565037 C103.102,178.565037 108.926,170.557037 112.202,165.279037 L109.654,163.641037 C105.377,170.193037 101.464,174.015037 99.098,174.015037 C98.006,174.015037 96.823,173.924037 96.823,172.104037 C96.823,169.374037 104.922,149.445037 104.922,143.530037 C104.922,139.162037 102.647,134.794037 97.005,134.794037 C88.815,134.794037 83.81,141.164037 79.26,146.715037 L79.078,146.715037 L89.634,110.133037 L72.162,111.498037 L71.343,114.683037 Z M147.601,166.826037 C144.234,170.557037 139.138,174.470037 133.86,174.470037 C126.944,174.470037 124.487,170.375037 124.487,164.005037 C124.487,163.277037 124.578,162.458037 124.669,161.639037 C133.587,159.728037 151.969,155.724037 151.969,143.894037 C151.969,137.342037 146.509,134.794037 140.958,134.794037 C128.491,134.794037 116.115,147.443037 116.115,163.277037 C116.115,172.923037 122.758,178.565037 132.131,178.565037 C139.775,178.565037 144.962,174.834037 149.694,169.192037 L147.601,166.826037 Z M125.124,158.454037 C126.125,150.901037 130.402,137.979037 139.684,137.979037 C142.869,137.979037 144.689,140.072037 144.689,143.348037 C144.689,150.810037 137.318,156.088037 125.124,158.454037 L125.124,158.454037 Z M181.817,177.200037 L185.002,177.200037 L190.917,171.376037 C195.831,176.017037 202.565,178.565037 209.39,178.565037 C222.13,178.565037 234.051,171.467037 234.051,157.544037 C234.051,135.067037 201.291,141.346037 201.291,126.513037 C201.291,118.414037 207.661,114.228037 215.396,114.228037 C226.771,114.228037 231.412,122.782037 231.412,132.974037 L231.412,135.249037 L235.052,135.886037 L240.421,112.317037 L237.145,112.317037 L231.594,117.140037 C227.317,112.226037 221.129,110.133037 214.668,110.133037 C203.111,110.133037 193.465,118.778037 193.465,130.608037 C193.647,152.175037 225.679,145.987037 225.679,161.548037 C225.679,170.557037 218.035,174.470037 209.845,174.470037 C197.469,174.470037 190.917,166.098037 190.917,154.996037 L190.917,152.084037 L187.277,151.447037 L181.817,177.200037 Z M247.246,139.344037 L251.341,139.344037 C253.343,139.344037 254.799,139.344037 254.799,141.346037 C254.799,142.620037 254.435,143.530037 254.162,144.440037 L248.702,162.094037 C247.974,164.551037 247.064,167.918037 247.064,170.466037 C247.064,175.198037 250.158,178.565037 255.618,178.565037 C262.898,178.565037 268.358,172.468037 272.18,167.281037 L272.362,167.281037 C271.998,168.919037 271.634,170.739037 271.634,172.650037 C271.634,176.654037 274,178.565037 277.822,178.565037 C284.283,178.565037 290.562,170.102037 293.656,165.188037 L291.108,163.550037 L288.378,167.281037 C285.921,170.648037 282.554,174.015037 280.825,174.015037 C279.551,174.015037 278.914,172.923037 278.914,171.285037 C278.914,169.647037 279.46,167.281037 280.37,164.733037 L290.289,135.522037 L281.917,135.522037 C278.55,146.988037 275.274,157.362037 271.361,163.550037 C269.086,167.099037 263.444,174.015037 258.894,174.015037 C255.982,174.015037 254.344,172.377037 254.344,169.192037 C254.344,166.735037 255.709,163.732037 256.255,161.912037 L264.991,134.794037 L248.065,136.159037 L247.246,139.344037 Z M347.255,163.641037 C342.978,170.193037 339.065,174.015037 336.699,174.015037 C335.607,174.015037 334.424,173.924037 334.424,172.104037 C334.424,169.374037 342.523,149.445037 342.523,143.530037 C342.523,139.162037 340.248,134.794037 334.606,134.794037 C326.416,134.794037 321.411,141.164037 316.861,146.715037 L316.679,146.715037 L319.318,134.794037 L303.484,136.159037 L302.483,139.344037 L306.305,139.344037 C309.945,139.344037 310.4,140.891037 310.4,141.892037 C310.4,143.075037 309.672,146.533037 308.307,150.719037 L299.935,177.200037 L308.307,177.200037 C310.491,168.737037 312.402,160.092037 316.497,152.266037 C319.045,147.443037 325.506,139.344037 331.421,139.344037 C333.696,139.344037 335.243,140.982037 335.243,143.257037 C335.243,148.171037 327.144,166.917037 327.144,171.376037 C327.144,175.562037 329.419,178.565037 333.787,178.565037 C340.703,178.565037 346.527,170.557037 349.803,165.279037 L347.255,163.641037 Z M383.291,160.911037 C380.288,166.007037 376.193,173.105037 369.368,173.105037 L368.276,177.200037 L392.482,177.200037 L393.574,173.105037 L391.208,173.105037 C387.659,173.105037 384.929,173.105037 384.929,168.737037 C384.929,166.553037 388.296,161.275037 391.754,155.542037 L415.414,155.542037 L417.416,165.825037 C417.689,166.917037 417.962,168.282037 417.962,169.647037 C417.962,172.377037 416.142,173.105037 413.958,173.105037 L409.863,173.105037 L408.771,177.200037 L435.889,177.200037 L436.981,173.105037 L433.978,173.105037 C429.155,173.105037 428.518,171.649037 427.517,166.462037 L416.324,110.133037 L412.684,110.133037 L383.291,160.911037 Z M409.408,124.329037 L414.686,150.992037 L394.211,150.992037 L409.408,124.329037 Z M448.538,114.683037 L452.633,114.683037 C454.635,114.683037 456.637,114.683037 456.637,116.685037 C456.637,118.050037 456.273,119.779037 455.636,121.872037 L443.078,163.641037 C442.077,166.917037 441.531,169.465037 441.531,172.377037 C441.531,174.834037 442.441,178.565037 447.81,178.565037 C455.909,178.565037 462.825,167.736037 464.554,164.642037 L461.915,163.095037 C460.004,165.734037 454.726,174.015037 450.904,174.015037 C449.721,174.015037 448.811,173.378037 448.811,171.740037 C448.811,170.102037 449.539,167.190037 450.54,163.914037 L466.829,110.133037 L449.357,111.498037 L448.538,114.683037 Z M482.936,145.805037 C482.936,140.163037 487.941,137.979037 492.855,137.979037 C494.857,137.979037 499.134,138.343037 499.134,140.618037 C499.134,142.256037 496.768,142.438037 496.768,145.532037 C496.768,148.171037 499.043,149.354037 501.591,149.354037 C504.867,149.354037 506.414,146.897037 506.414,144.076037 C506.414,136.978037 498.406,134.794037 492.582,134.794037 C484.756,134.794037 476.384,139.071037 476.384,147.989037 C476.384,154.814037 481.48,157.180037 486.485,159.091037 C492.855,161.548037 496.495,162.913037 496.495,167.190037 C496.495,173.378037 490.762,175.380037 485.575,175.380037 C482.572,175.380037 478.022,174.288037 478.022,171.649037 C478.022,169.465037 480.661,170.193037 480.661,166.280037 C480.661,163.823037 478.568,162.367037 476.02,162.367037 C472.198,162.367037 470.742,165.734037 470.742,168.737037 C470.742,176.563037 479.842,178.565037 485.939,178.565037 C494.584,178.565037 503.047,173.924037 503.047,164.369037 C503.047,157.908037 498.042,155.269037 492.946,153.358037 C486.394,150.901037 482.936,149.718037 482.936,145.805037 L482.936,145.805037 Z M551.914,152.266037 C551.914,142.347037 545.271,134.794037 535.079,134.794037 C521.702,134.794037 511.146,148.626037 511.146,161.275037 C511.146,172.195037 517.061,178.565037 527.799,178.565037 C541.358,178.565037 551.914,165.006037 551.914,152.266037 L551.914,152.266037 Z M528.254,175.380037 C521.611,175.380037 519.518,171.194037 519.518,165.188037 C519.518,157.180037 524.341,137.979037 534.897,137.979037 C541.449,137.979037 543.542,142.984037 543.542,148.808037 C543.542,156.907037 538.719,175.380037 528.254,175.380037 L528.254,175.380037 Z M640.093,164.369037 C638.91,167.372037 636.635,173.105037 633.632,173.105037 C631.812,173.105037 630.993,171.558037 630.993,167.736037 L630.993,157.908037 C630.993,151.356037 627.444,145.714037 620.801,144.076037 L620.801,143.894037 C631.721,142.802037 644.734,139.890037 644.734,126.331037 C644.734,114.319037 632.176,111.498037 623.622,111.498037 L592.318,111.498037 L591.226,115.593037 L596.322,115.593037 C598.87,115.593037 601.782,115.593037 601.782,118.505037 C601.782,120.871037 590.043,162.185037 588.405,168.282037 C587.586,171.376037 586.858,173.105037 582.49,173.105037 L578.759,173.105037 L577.667,177.200037 L606.696,177.200037 L607.788,173.105037 L603.784,173.105037 C601.236,173.105037 598.324,173.105037 598.324,170.193037 C598.324,168.919037 601.6,156.725037 604.785,144.986037 L612.52,144.986037 C617.798,144.986037 621.711,147.352037 621.711,153.267037 C621.711,158.090037 620.528,162.913037 620.528,167.736037 C620.528,173.651037 623.622,178.565037 630.083,178.565037 C637.909,178.565037 640.73,171.740037 643.187,165.552037 L640.093,164.369037 Z M605.786,140.891037 L610.791,122.600037 C612.338,116.594037 612.793,115.593037 619.618,115.593037 C625.897,115.593037 633.996,116.503037 633.996,125.785037 C633.996,139.253037 621.893,140.891037 611.246,140.891037 L605.786,140.891037 Z M672.216,163.095037 C670.305,165.734037 665.027,174.015037 661.205,174.015037 C660.022,174.015037 659.112,173.378037 659.112,171.740037 C659.112,170.739037 659.567,169.192037 660.022,167.827037 L670.487,134.794037 L653.561,136.159037 L652.742,139.344037 L656.291,139.344037 C658.293,139.344037 660.295,139.344037 660.295,141.346037 C660.295,142.620037 659.931,143.530037 659.658,144.440037 L653.015,165.734037 C652.196,168.555037 651.832,170.193037 651.832,172.377037 C651.832,174.834037 652.742,178.565037 658.111,178.565037 C666.21,178.565037 673.126,167.736037 674.855,164.642037 L672.216,163.095037 Z M664.208,116.958037 C664.208,119.597037 666.392,122.054037 669.031,122.054037 C671.761,122.054037 674.127,119.597037 674.127,116.958037 C674.127,114.319037 671.579,112.135037 668.94,112.135037 C666.392,112.135037 664.208,114.410037 664.208,116.958037 L664.208,116.958037 Z M691.872,145.805037 C691.872,140.163037 696.877,137.979037 701.791,137.979037 C703.793,137.979037 708.07,138.343037 708.07,140.618037 C708.07,142.256037 705.704,142.438037 705.704,145.532037 C705.704,148.171037 707.979,149.354037 710.527,149.354037 C713.803,149.354037 715.35,146.897037 715.35,144.076037 C715.35,136.978037 707.342,134.794037 701.518,134.794037 C693.692,134.794037 685.32,139.071037 685.32,147.989037 C685.32,154.814037 690.416,157.180037 695.421,159.091037 C701.791,161.548037 705.431,162.913037 705.431,167.190037 C705.431,173.378037 699.698,175.380037 694.511,175.380037 C691.508,175.380037 686.958,174.288037 686.958,171.649037 C686.958,169.465037 689.597,170.193037 689.597,166.280037 C689.597,163.823037 687.504,162.367037 684.956,162.367037 C681.134,162.367037 679.678,165.734037 679.678,168.737037 C679.678,176.563037 688.778,178.565037 694.875,178.565037 C703.52,178.565037 711.983,173.924037 711.983,164.369037 C711.983,157.908037 706.978,155.269037 701.882,153.358037 C695.33,150.901037 691.872,149.718037 691.872,145.805037 L691.872,145.805037 Z M750.84,166.826037 C747.473,170.557037 742.377,174.470037 737.099,174.470037 C730.183,174.470037 727.726,170.375037 727.726,164.005037 C727.726,163.277037 727.817,162.458037 727.908,161.639037 C736.826,159.728037 755.208,155.724037 755.208,143.894037 C755.208,137.342037 749.748,134.794037 744.197,134.794037 C731.73,134.794037 719.354,147.443037 719.354,163.277037 C719.354,172.923037 725.997,178.565037 735.37,178.565037 C743.014,178.565037 748.201,174.834037 752.933,169.192037 L750.84,166.826037 Z M728.363,158.454037 C729.364,150.901037 733.641,137.979037 742.923,137.979037 C746.108,137.979037 747.928,140.072037 747.928,143.348037 C747.928,150.810037 740.557,156.088037 728.363,158.454037 L728.363,158.454037 Z M772.68,145.805037 C772.68,140.163037 777.685,137.979037 782.599,137.979037 C784.601,137.979037 788.878,138.343037 788.878,140.618037 C788.878,142.256037 786.512,142.438037 786.512,145.532037 C786.512,148.171037 788.787,149.354037 791.335,149.354037 C794.611,149.354037 796.158,146.897037 796.158,144.076037 C796.158,136.978037 788.15,134.794037 782.326,134.794037 C774.5,134.794037 766.128,139.071037 766.128,147.989037 C766.128,154.814037 771.224,157.180037 776.229,159.091037 C782.599,161.548037 786.239,162.913037 786.239,167.190037 C786.239,173.378037 780.506,175.380037 775.319,175.380037 C772.316,175.380037 767.766,174.288037 767.766,171.649037 C767.766,169.465037 770.405,170.193037 770.405,166.280037 C770.405,163.823037 768.312,162.367037 765.764,162.367037 C761.942,162.367037 760.486,165.734037 760.486,168.737037 C760.486,176.563037 769.586,178.565037 775.683,178.565037 C784.328,178.565037 792.791,173.924037 792.791,164.369037 C792.791,157.908037 787.786,155.269037 782.69,153.358037 C776.138,150.901037 772.68,149.718037 772.68,145.805037 L772.68,145.805037 Z" id="The-Cover-of" sketch:type="MSShapeGroup"></path>
        </g>
    </g>
</svg>