<?xml version="1.0" encoding="UTF-8" standalone="no"?>
<svg width="1365px" height="546px" viewBox="0 0 1365 546" version="1.1" xmlns="http://www.w3.org/2000/svg" xmlns:xlink="http://www.w3.org/1999/xlink" xmlns:sketch="http://www.bohemiancoding.com/sketch/ns">
    <!-- Generator: Sketch 3.4 (15575) - http://www.bohemiancoding.com/sketch -->
    <title>Untitled 2</title>
    <desc>Created with Sketch.</desc>
    <defs></defs>
    <g id="Page-1" stroke="none" stroke-width="1" fill="none" fill-rule="evenodd" sketch:type="MSPage">
        <g id="Group" sketch:type="MSLayerGroup">
            <rect id="Rectangle-7" fill="#4C94AB" sketch:type="MSShapeGroup" x="273" y="273" width="273" height="273"></rect>
            <rect id="Rectangle-4" fill="#7F4423" sketch:type="MSShapeGroup" x="1092" y="0" width="273" height="273"></rect>
            <rect id="Rectangle-3" fill="#6F9699" sketch:type="MSShapeGroup" x="819" y="0" width="273" height="273"></rect>
            <rect id="Rectangle-1" fill="#B88C2E" sketch:type="MSShapeGroup" x="273" y="0" width="273" height="273"></rect>
            <rect id="Rectangle-7" fill="#F3D5B9" sketch:type="MSShapeGroup" x="1092" y="273" width="273" height="273"></rect>
            <rect id="Rectangle-5" fill="#917766" sketch:type="MSShapeGroup" x="819" y="273" width="273" height="273"></rect>
            <rect id="Rectangle-6" fill="#D9312A" sketch:type="MSShapeGroup" x="546" y="0" width="273" height="273"></rect>
            <rect id="Rectangle-5" fill="#F4AF35" sketch:type="MSShapeGroup" x="546" y="273" width="273" height="273"></rect>
            <rect id="Rectangle-5-Copy" fill="#346EA5" sketch:type="MSShapeGroup" x="0" y="0" width="273" height="273"></rect>
            <rect id="Rectangle-7" fill="#BE791E" sketch:type="MSShapeGroup" x="0" y="273" width="273" height="273"></rect>
        </g>
        <path d="M295.272,241.788 C294.444,244.916 293.708,246.664 289.292,246.664 L284.416,246.664 L283.312,250.804 L314.868,250.804 L315.972,246.664 L310.82,246.664 C308.244,246.664 305.3,246.664 305.3,243.72 C305.3,241.972 305.944,239.948 306.312,238.476 L318.64,193.12 C319.376,189.808 319.836,188.52 323.516,188.52 C333.452,188.52 335.936,193.856 335.936,202.964 C335.936,205.08 335.844,207.196 335.66,209.128 L339.34,209.68 L343.02,184.38 L288.096,184.38 L280,208.116 L283.68,208.668 C290.856,194.868 294.904,188.52 305.944,188.52 C307.968,188.52 309.256,188.98 309.256,190.452 C309.256,191.556 308.796,192.844 308.152,195.052 L295.272,241.788 Z M347.436,187.6 L351.576,187.6 C353.6,187.6 355.624,187.6 355.624,189.624 C355.624,192.108 354.888,193.764 354.06,196.616 L338.328,250.804 L346.792,250.804 C349,242.248 350.932,233.508 355.072,225.596 C357.648,220.72 364.18,212.532 370.16,212.532 C372.46,212.532 374.024,214.188 374.024,216.488 C374.024,221.456 365.836,240.408 365.836,244.916 C365.836,249.148 368.136,252.184 372.552,252.184 C379.544,252.184 385.432,244.088 388.744,238.752 L386.168,237.096 C381.844,243.72 377.888,247.584 375.496,247.584 C374.392,247.584 373.196,247.492 373.196,245.652 C373.196,242.892 381.384,222.744 381.384,216.764 C381.384,212.348 379.084,207.932 373.38,207.932 C365.1,207.932 360.04,214.372 355.44,219.984 L355.256,219.984 L365.928,183 L348.264,184.38 L347.436,187.6 Z M424.532,240.316 C421.128,244.088 415.976,248.044 410.64,248.044 C403.648,248.044 401.164,243.904 401.164,237.464 C401.164,236.728 401.256,235.9 401.348,235.072 C410.364,233.14 428.948,229.092 428.948,217.132 C428.948,210.508 423.428,207.932 417.816,207.932 C405.212,207.932 392.7,220.72 392.7,236.728 C392.7,246.48 399.416,252.184 408.892,252.184 C416.62,252.184 421.864,248.412 426.648,242.708 L424.532,240.316 Z M401.808,231.852 C402.82,224.216 407.144,211.152 416.528,211.152 C419.748,211.152 421.588,213.268 421.588,216.58 C421.588,224.124 414.136,229.46 401.808,231.852 L401.808,231.852 Z M516.532,190.82 C513.036,185.576 506.78,183 500.524,183 C479.456,183 463.356,205.08 463.356,225.596 C463.356,241.328 473.2,252.184 489.668,252.184 C504.664,252.184 512.208,245.836 517.82,232.312 L514.232,230.656 C510.092,240.408 503.468,248.044 492.152,248.044 C480.192,248.044 474.764,239.58 474.764,228.448 C474.764,214.556 482.952,187.14 500.984,187.14 C514.324,187.14 516.256,200.664 516.532,210.968 L520.212,210.968 L525.18,185.208 L521.96,185.208 L516.532,190.82 Z M567.5,225.596 C567.5,215.568 560.784,207.932 550.48,207.932 C536.956,207.932 526.284,221.916 526.284,234.704 C526.284,245.744 532.264,252.184 543.12,252.184 C556.828,252.184 567.5,238.476 567.5,225.596 L567.5,225.596 Z M543.58,248.964 C536.864,248.964 534.748,244.732 534.748,238.66 C534.748,230.564 539.624,211.152 550.296,211.152 C556.92,211.152 559.036,216.212 559.036,222.1 C559.036,230.288 554.16,248.964 543.58,248.964 L543.58,248.964 Z M592.34,207.932 L575.78,209.312 L574.952,212.532 L578.54,212.532 C580.564,212.532 582.036,212.532 582.036,214.556 C582.036,215.2 581.852,216.488 581.576,217.684 L579,226.516 C577.988,229.736 576.424,235.624 576.424,238.936 C576.424,246.848 580.196,252.184 588.568,252.184 C603.38,252.184 613.224,228.724 613.224,216.028 C613.224,210.6 611.2,207.932 607.704,207.932 C604.944,207.932 603.288,209.496 603.288,211.888 C603.288,216.028 608.164,215.66 608.164,221.732 C608.164,230.104 600.252,247.584 590.5,247.584 C586.176,247.584 583.784,244.548 583.784,240.408 C583.784,234.888 585.808,229 587.28,224.308 L592.34,207.932 Z M651.128,240.316 C647.724,244.088 642.572,248.044 637.236,248.044 C630.244,248.044 627.76,243.904 627.76,237.464 C627.76,236.728 627.852,235.9 627.944,235.072 C636.96,233.14 655.544,229.092 655.544,217.132 C655.544,210.508 650.024,207.932 644.412,207.932 C631.808,207.932 619.296,220.72 619.296,236.728 C619.296,246.48 626.012,252.184 635.488,252.184 C643.216,252.184 648.46,248.412 653.244,242.708 L651.128,240.316 Z M628.404,231.852 C629.416,224.216 633.74,211.152 643.124,211.152 C646.344,211.152 648.184,213.268 648.184,216.58 C648.184,224.124 640.732,229.46 628.404,231.852 L628.404,231.852 Z M664.192,212.532 L668.056,212.532 C671.736,212.532 672.196,214.096 672.196,215.108 C672.196,216.304 671.46,219.8 670.08,224.032 L661.616,250.804 L670.08,250.804 C675.692,225.964 685.26,212.992 689.216,212.992 C690.964,212.992 691.24,214.096 691.24,215.476 C691.24,219.156 692.344,220.168 695.932,220.168 C698.784,220.168 700.624,217.776 700.624,214.832 C700.624,210.692 697.68,207.932 693.54,207.932 C686.364,207.932 682.132,214.74 678.728,219.984 L678.544,219.984 L681.212,207.932 L665.204,209.312 L664.192,212.532 Z M768.52,225.596 C768.52,215.568 761.804,207.932 751.5,207.932 C737.976,207.932 727.304,221.916 727.304,234.704 C727.304,245.744 733.284,252.184 744.14,252.184 C757.848,252.184 768.52,238.476 768.52,225.596 L768.52,225.596 Z M744.6,248.964 C737.884,248.964 735.768,244.732 735.768,238.66 C735.768,230.564 740.644,211.152 751.316,211.152 C757.94,211.152 760.056,216.212 760.056,222.1 C760.056,230.288 755.18,248.964 744.6,248.964 L744.6,248.964 Z M776.892,268.008 C779.652,259.36 782.504,250.804 784.712,241.972 L791.796,213.452 L803.664,213.452 L804.676,209.312 L792.9,209.312 L794.924,201.492 C796.58,196.064 799.156,186.22 806.516,186.22 C807.712,186.22 808.448,186.68 808.448,187.6 C808.448,189.256 806.976,189.256 806.976,192.108 C806.976,194.408 809,196.064 811.3,196.064 C814.612,196.064 816.36,194.04 816.36,190.728 C816.36,185.576 810.932,183 806.424,183 C793.176,183 788.668,198.732 785.54,209.312 L776.8,209.312 L775.788,213.452 L784.436,213.452 C779.468,232.036 775.512,251.632 766.864,269.664 L776.892,268.008 Z M295.272,352.188037 C294.444,355.316037 293.708,357.064037 289.292,357.064037 L284.416,357.064037 L283.312,361.204037 L314.868,361.204037 L315.972,357.064037 L310.82,357.064037 C308.244,357.064037 305.3,357.064037 305.3,354.120037 C305.3,352.372037 305.944,350.348037 306.312,348.876037 L318.64,303.520037 C319.376,300.208037 319.836,298.920037 323.516,298.920037 C333.452,298.920037 335.936,304.256037 335.936,313.364037 C335.936,315.480037 335.844,317.596037 335.66,319.528037 L339.34,320.080037 L343.02,294.780037 L288.096,294.780037 L280,318.516037 L283.68,319.068037 C290.856,305.268037 294.904,298.920037 305.944,298.920037 C307.968,298.920037 309.256,299.380037 309.256,300.852037 C309.256,301.956037 308.796,303.244037 308.152,305.452037 L295.272,352.188037 Z M347.436,298.000037 L351.576,298.000037 C353.6,298.000037 355.624,298.000037 355.624,300.024037 C355.624,302.508037 354.888,304.164037 354.06,307.016037 L338.328,361.204037 L346.792,361.204037 C349,352.648037 350.932,343.908037 355.072,335.996037 C357.648,331.120037 364.18,322.932037 370.16,322.932037 C372.46,322.932037 374.024,324.588037 374.024,326.888037 C374.024,331.856037 365.836,350.808037 365.836,355.316037 C365.836,359.548037 368.136,362.584037 372.552,362.584037 C379.544,362.584037 385.432,354.488037 388.744,349.152037 L386.168,347.496037 C381.844,354.120037 377.888,357.984037 375.496,357.984037 C374.392,357.984037 373.196,357.892037 373.196,356.052037 C373.196,353.292037 381.384,333.144037 381.384,327.164037 C381.384,322.748037 379.084,318.332037 373.38,318.332037 C365.1,318.332037 360.04,324.772037 355.44,330.384037 L355.256,330.384037 L365.928,293.400037 L348.264,294.780037 L347.436,298.000037 Z M424.532,350.716037 C421.128,354.488037 415.976,358.444037 410.64,358.444037 C403.648,358.444037 401.164,354.304037 401.164,347.864037 C401.164,347.128037 401.256,346.300037 401.348,345.472037 C410.364,343.540037 428.948,339.492037 428.948,327.532037 C428.948,320.908037 423.428,318.332037 417.816,318.332037 C405.212,318.332037 392.7,331.120037 392.7,347.128037 C392.7,356.880037 399.416,362.584037 408.892,362.584037 C416.62,362.584037 421.864,358.812037 426.648,353.108037 L424.532,350.716037 Z M401.808,342.252037 C402.82,334.616037 407.144,321.552037 416.528,321.552037 C419.748,321.552037 421.588,323.668037 421.588,326.980037 C421.588,334.524037 414.136,339.860037 401.808,342.252037 L401.808,342.252037 Z M459.124,361.204037 L462.344,361.204037 L468.324,355.316037 C473.292,360.008037 480.1,362.584037 487,362.584037 C499.88,362.584037 511.932,355.408037 511.932,341.332037 C511.932,318.608037 478.812,324.956037 478.812,309.960037 C478.812,301.772037 485.252,297.540037 493.072,297.540037 C504.572,297.540037 509.264,306.188037 509.264,316.492037 L509.264,318.792037 L512.944,319.436037 L518.372,295.608037 L515.06,295.608037 L509.448,300.484037 C505.124,295.516037 498.868,293.400037 492.336,293.400037 C480.652,293.400037 470.9,302.140037 470.9,314.100037 C471.084,335.904037 503.468,329.648037 503.468,345.380037 C503.468,354.488037 495.74,358.444037 487.46,358.444037 C474.948,358.444037 468.324,349.980037 468.324,338.756037 L468.324,335.812037 L464.644,335.168037 L459.124,361.204037 Z M525.272,322.932037 L529.412,322.932037 C531.436,322.932037 532.908,322.932037 532.908,324.956037 C532.908,326.244037 532.54,327.164037 532.264,328.084037 L526.744,345.932037 C526.008,348.416037 525.088,351.820037 525.088,354.396037 C525.088,359.180037 528.216,362.584037 533.736,362.584037 C541.096,362.584037 546.616,356.420037 550.48,351.176037 L550.664,351.176037 C550.296,352.832037 549.928,354.672037 549.928,356.604037 C549.928,360.652037 552.32,362.584037 556.184,362.584037 C562.716,362.584037 569.064,354.028037 572.192,349.060037 L569.616,347.404037 L566.856,351.176037 C564.372,354.580037 560.968,357.984037 559.22,357.984037 C557.932,357.984037 557.288,356.880037 557.288,355.224037 C557.288,353.568037 557.84,351.176037 558.76,348.600037 L568.788,319.068037 L560.324,319.068037 C556.92,330.660037 553.608,341.148037 549.652,347.404037 C547.352,350.992037 541.648,357.984037 537.048,357.984037 C534.104,357.984037 532.448,356.328037 532.448,353.108037 C532.448,350.624037 533.828,347.588037 534.38,345.748037 L543.212,318.332037 L526.1,319.712037 L525.272,322.932037 Z M626.38,347.496037 C622.056,354.120037 618.1,357.984037 615.708,357.984037 C614.604,357.984037 613.408,357.892037 613.408,356.052037 C613.408,353.292037 621.596,333.144037 621.596,327.164037 C621.596,322.748037 619.296,318.332037 613.592,318.332037 C605.312,318.332037 600.252,324.772037 595.652,330.384037 L595.468,330.384037 L598.136,318.332037 L582.128,319.712037 L581.116,322.932037 L584.98,322.932037 C588.66,322.932037 589.12,324.496037 589.12,325.508037 C589.12,326.704037 588.384,330.200037 587.004,334.432037 L578.54,361.204037 L587.004,361.204037 C589.212,352.648037 591.144,343.908037 595.284,335.996037 C597.86,331.120037 604.392,322.932037 610.372,322.932037 C612.672,322.932037 614.236,324.588037 614.236,326.888037 C614.236,331.856037 606.048,350.808037 606.048,355.316037 C606.048,359.548037 608.348,362.584037 612.764,362.584037 C619.756,362.584037 625.644,354.488037 628.956,349.152037 L626.38,347.496037 Z M662.812,344.736037 C659.776,349.888037 655.636,357.064037 648.736,357.064037 L647.632,361.204037 L672.104,361.204037 L673.208,357.064037 L670.816,357.064037 C667.228,357.064037 664.468,357.064037 664.468,352.648037 C664.468,350.440037 667.872,345.104037 671.368,339.308037 L695.288,339.308037 L697.312,349.704037 C697.588,350.808037 697.864,352.188037 697.864,353.568037 C697.864,356.328037 696.024,357.064037 693.816,357.064037 L689.676,357.064037 L688.572,361.204037 L715.988,361.204037 L717.092,357.064037 L714.056,357.064037 C709.18,357.064037 708.536,355.592037 707.524,350.348037 L696.208,293.400037 L692.528,293.400037 L662.812,344.736037 Z M689.216,307.752037 L694.552,334.708037 L673.852,334.708037 L689.216,307.752037 Z M728.776,298.000037 L732.916,298.000037 C734.94,298.000037 736.964,298.000037 736.964,300.024037 C736.964,301.404037 736.596,303.152037 735.952,305.268037 L723.256,347.496037 C722.244,350.808037 721.692,353.384037 721.692,356.328037 C721.692,358.812037 722.612,362.584037 728.04,362.584037 C736.228,362.584037 743.22,351.636037 744.968,348.508037 L742.3,346.944037 C740.368,349.612037 735.032,357.984037 731.168,357.984037 C729.972,357.984037 729.052,357.340037 729.052,355.684037 C729.052,354.028037 729.788,351.084037 730.8,347.772037 L747.268,293.400037 L729.604,294.780037 L728.776,298.000037 Z M763.552,329.464037 C763.552,323.760037 768.612,321.552037 773.58,321.552037 C775.604,321.552037 779.928,321.920037 779.928,324.220037 C779.928,325.876037 777.536,326.060037 777.536,329.188037 C777.536,331.856037 779.836,333.052037 782.412,333.052037 C785.724,333.052037 787.288,330.568037 787.288,327.716037 C787.288,320.540037 779.192,318.332037 773.304,318.332037 C765.392,318.332037 756.928,322.656037 756.928,331.672037 C756.928,338.572037 762.08,340.964037 767.14,342.896037 C773.58,345.380037 777.26,346.760037 777.26,351.084037 C777.26,357.340037 771.464,359.364037 766.22,359.364037 C763.184,359.364037 758.584,358.260037 758.584,355.592037 C758.584,353.384037 761.252,354.120037 761.252,350.164037 C761.252,347.680037 759.136,346.208037 756.56,346.208037 C752.696,346.208037 751.224,349.612037 751.224,352.648037 C751.224,360.560037 760.424,362.584037 766.588,362.584037 C775.328,362.584037 783.884,357.892037 783.884,348.232037 C783.884,341.700037 778.824,339.032037 773.672,337.100037 C767.048,334.616037 763.552,333.420037 763.552,329.464037 L763.552,329.464037 Z M833.288,335.996037 C833.288,325.968037 826.572,318.332037 816.268,318.332037 C802.744,318.332037 792.072,332.316037 792.072,345.104037 C792.072,356.144037 798.052,362.584037 808.908,362.584037 C822.616,362.584037 833.288,348.876037 833.288,335.996037 L833.288,335.996037 Z M809.368,359.364037 C802.652,359.364037 800.536,355.132037 800.536,349.060037 C800.536,340.964037 805.412,321.552037 816.084,321.552037 C822.708,321.552037 824.824,326.612037 824.824,332.500037 C824.824,340.688037 819.948,359.364037 809.368,359.364037 L809.368,359.364037 Z M922.436,348.232037 C921.24,351.268037 918.94,357.064037 915.904,357.064037 C914.064,357.064037 913.236,355.500037 913.236,351.636037 L913.236,341.700037 C913.236,335.076037 909.648,329.372037 902.932,327.716037 L902.932,327.532037 C913.972,326.428037 927.128,323.484037 927.128,309.776037 C927.128,297.632037 914.432,294.780037 905.784,294.780037 L874.136,294.780037 L873.032,298.920037 L878.184,298.920037 C880.76,298.920037 883.704,298.920037 883.704,301.864037 C883.704,304.256037 871.836,346.024037 870.18,352.188037 C869.352,355.316037 868.616,357.064037 864.2,357.064037 L860.428,357.064037 L859.324,361.204037 L888.672,361.204037 L889.776,357.064037 L885.728,357.064037 C883.152,357.064037 880.208,357.064037 880.208,354.120037 C880.208,352.832037 883.52,340.504037 886.74,328.636037 L894.56,328.636037 C899.896,328.636037 903.852,331.028037 903.852,337.008037 C903.852,341.884037 902.656,346.760037 902.656,351.636037 C902.656,357.616037 905.784,362.584037 912.316,362.584037 C920.228,362.584037 923.08,355.684037 925.564,349.428037 L922.436,348.232037 Z M887.752,324.496037 L892.812,306.004037 C894.376,299.932037 894.836,298.920037 901.736,298.920037 C908.084,298.920037 916.272,299.840037 916.272,309.224037 C916.272,322.840037 904.036,324.496037 893.272,324.496037 L887.752,324.496037 Z M954.912,346.944037 C952.98,349.612037 947.644,357.984037 943.78,357.984037 C942.584,357.984037 941.664,357.340037 941.664,355.684037 C941.664,354.672037 942.124,353.108037 942.584,351.728037 L953.164,318.332037 L936.052,319.712037 L935.224,322.932037 L938.812,322.932037 C940.836,322.932037 942.86,322.932037 942.86,324.956037 C942.86,326.244037 942.492,327.164037 942.216,328.084037 L935.5,349.612037 C934.672,352.464037 934.304,354.120037 934.304,356.328037 C934.304,358.812037 935.224,362.584037 940.652,362.584037 C948.84,362.584037 955.832,351.636037 957.58,348.508037 L954.912,346.944037 Z M946.816,300.300037 C946.816,302.968037 949.024,305.452037 951.692,305.452037 C954.452,305.452037 956.844,302.968037 956.844,300.300037 C956.844,297.632037 954.268,295.424037 951.6,295.424037 C949.024,295.424037 946.816,297.724037 946.816,300.300037 L946.816,300.300037 Z M974.784,329.464037 C974.784,323.760037 979.844,321.552037 984.812,321.552037 C986.836,321.552037 991.16,321.920037 991.16,324.220037 C991.16,325.876037 988.768,326.060037 988.768,329.188037 C988.768,331.856037 991.068,333.052037 993.644,333.052037 C996.956,333.052037 998.52,330.568037 998.52,327.716037 C998.52,320.540037 990.424,318.332037 984.536,318.332037 C976.624,318.332037 968.16,322.656037 968.16,331.672037 C968.16,338.572037 973.312,340.964037 978.372,342.896037 C984.812,345.380037 988.492,346.760037 988.492,351.084037 C988.492,357.340037 982.696,359.364037 977.452,359.364037 C974.416,359.364037 969.816,358.260037 969.816,355.592037 C969.816,353.384037 972.484,354.120037 972.484,350.164037 C972.484,347.680037 970.368,346.208037 967.792,346.208037 C963.928,346.208037 962.456,349.612037 962.456,352.648037 C962.456,360.560037 971.656,362.584037 977.82,362.584037 C986.56,362.584037 995.116,357.892037 995.116,348.232037 C995.116,341.700037 990.056,339.032037 984.904,337.100037 C978.28,334.616037 974.784,333.420037 974.784,329.464037 L974.784,329.464037 Z M1034.4,350.716037 C1030.996,354.488037 1025.844,358.444037 1020.508,358.444037 C1013.516,358.444037 1011.032,354.304037 1011.032,347.864037 C1011.032,347.128037 1011.124,346.300037 1011.216,345.472037 C1020.232,343.540037 1038.816,339.492037 1038.816,327.532037 C1038.816,320.908037 1033.296,318.332037 1027.684,318.332037 C1015.08,318.332037 1002.568,331.120037 1002.568,347.128037 C1002.568,356.880037 1009.284,362.584037 1018.76,362.584037 C1026.488,362.584037 1031.732,358.812037 1036.516,353.108037 L1034.4,350.716037 Z M1011.676,342.252037 C1012.688,334.616037 1017.012,321.552037 1026.396,321.552037 C1029.616,321.552037 1031.456,323.668037 1031.456,326.980037 C1031.456,334.524037 1024.004,339.860037 1011.676,342.252037 L1011.676,342.252037 Z M1056.48,329.464037 C1056.48,323.760037 1061.54,321.552037 1066.508,321.552037 C1068.532,321.552037 1072.856,321.920037 1072.856,324.220037 C1072.856,325.876037 1070.464,326.060037 1070.464,329.188037 C1070.464,331.856037 1072.764,333.052037 1075.34,333.052037 C1078.652,333.052037 1080.216,330.568037 1080.216,327.716037 C1080.216,320.540037 1072.12,318.332037 1066.232,318.332037 C1058.32,318.332037 1049.856,322.656037 1049.856,331.672037 C1049.856,338.572037 1055.008,340.964037 1060.068,342.896037 C1066.508,345.380037 1070.188,346.760037 1070.188,351.084037 C1070.188,357.340037 1064.392,359.364037 1059.148,359.364037 C1056.112,359.364037 1051.512,358.260037 1051.512,355.592037 C1051.512,353.384037 1054.18,354.120037 1054.18,350.164037 C1054.18,347.680037 1052.064,346.208037 1049.488,346.208037 C1045.624,346.208037 1044.152,349.612037 1044.152,352.648037 C1044.152,360.560037 1053.352,362.584037 1059.516,362.584037 C1068.256,362.584037 1076.812,357.892037 1076.812,348.232037 C1076.812,341.700037 1071.752,339.032037 1066.6,337.100037 C1059.976,334.616037 1056.48,333.420037 1056.48,329.464037 L1056.48,329.464037 Z" id="The-Cover-of-" fill="#FFFFFF" sketch:type="MSShapeGroup"></path>
        <text id="from-a-photo-taken-b" fill="#FFFFFF" sketch:type="MSTextLayer" font-family="New Century Schoolbook LT Std" font-size="14" font-style="italic" font-weight="normal">
            <tspan x="280" y="393">from a photo taken by my cell phone</tspan>
        </text>
    </g>
</svg>